<?xml version="1.0" encoding="iso-8859-1"?>
<!-- Generator: Adobe Illustrator 16.0.0, SVG Export Plug-In . SVG Version: 6.00 Build 0)  -->
<!DOCTYPE svg PUBLIC "-//W3C//DTD SVG 1.1//EN" "http://www.w3.org/Graphics/SVG/1.1/DTD/svg11.dtd">
<svg version="1.1" id="Capa_1" xmlns="http://www.w3.org/2000/svg" xmlns:xlink="http://www.w3.org/1999/xlink" x="0px" y="0px"
	 width="496.825px" height="496.825px" viewBox="0 0 496.825 496.825" style="enable-background:new 0 0 496.825 496.825;"
	 xml:space="preserve">
<g>
	<path d="M248.413,18.7c-95.625-42.075-162.562,0-162.562,0v153v325.125h19.125V276.888c26.775-9.562,78.413-19.125,143.438,9.562
		c95.625,42.075,162.562,0,162.562,0V18.7C410.975,18.7,344.038,60.775,248.413,18.7z M391.85,123.888L391.85,123.888
		c0-1.913-40.162,15.3-95.625,5.737v76.5c13.388,1.913,26.775,3.825,36.338,3.825c36.337,0,59.287-11.475,59.287-11.475v76.5
		c0,0-34.425,17.212-87.975,9.562c-3.825,0-9.562-1.913-7.65-1.913v-76.5c-15.3-1.912-32.513-7.65-49.725-15.3
		c-17.213-7.65-32.513-11.475-45.9-15.3v76.5c1.913,0-1.913,0-7.65,0c-49.725-7.65-87.975,3.825-87.975,3.825v-76.5
		c0,0,42.075-13.387,95.625-3.825v-76.5c-57.375-11.475-95.625,7.65-95.625,7.65v-76.5c0,0,38.25-19.125,95.625-7.65v76.5
		c15.3,1.912,30.6,7.65,47.812,15.3c17.213,7.65,32.513,13.388,47.812,15.3v-76.5c55.463,9.562,95.625-5.737,95.625-5.737V123.888z"
		/>
</g>
<g>
</g>
<g>
</g>
<g>
</g>
<g>
</g>
<g>
</g>
<g>
</g>
<g>
</g>
<g>
</g>
<g>
</g>
<g>
</g>
<g>
</g>
<g>
</g>
<g>
</g>
<g>
</g>
<g>
</g>
</svg>
