<svg xmlns="http://www.w3.org/2000/svg" viewBox="0 0 32 32"><defs><style>.cls-1{fill:none;stroke:#000;stroke-linejoin:round;stroke-width:2px;}</style></defs><title>45-Note</title><g id="_45-Note" data-name="45-Note"><polygon class="cls-1" points="20 3 20 5 12 5 12 3 12 1 20 1 20 3"/><polyline class="cls-1" points="12 3 5 3 5 18 5 31 27 31 27 27"/><polyline class="cls-1" points="20 3 27 3 27 18 27 23"/><polygon class="cls-1" points="15 27 27 27 31 27 31 23 27 23 15 23 15 27"/><polyline class="cls-1" points="15 23 10 25 15 27"/><line class="cls-1" x1="8" y1="10" x2="24" y2="10"/><line class="cls-1" x1="8" y1="14" x2="24" y2="14"/><line class="cls-1" x1="8" y1="18" x2="24" y2="18"/></g></svg>