<?xml version="1.0" encoding="iso-8859-1"?>
<!-- Generator: Adobe Illustrator 18.1.1, SVG Export Plug-In . SVG Version: 6.00 Build 0)  -->
<svg version="1.1" id="Capa_1" xmlns="http://www.w3.org/2000/svg" xmlns:xlink="http://www.w3.org/1999/xlink" x="0px" y="0px"
	 viewBox="0 0 791.911 791.911" style="enable-background:new 0 0 791.911 791.911;" xml:space="preserve">
<g>
	<path d="M688.034,226.02L688.034,226.02c0-1.951-0.975-2.837-1.951-4.788c0,0,0-0.975-0.975-0.975
		c-0.975-0.975-1.951-2.837-2.837-3.813l0,0L470.616,5.764l0,0l0,0l0,0c-0.975-0.975-1.951-1.951-3.813-2.837
		c0,0-0.975,0-0.975-0.975c-0.975-0.975-2.837-0.975-3.813-1.951l0,0c-0.975,0-1.951,0-2.837,0H154.596
		c-27.754,0-50.719,22.966-50.719,50.719v690.473c0,27.754,22.966,50.719,50.719,50.719h482.63
		c27.754,0,50.719-22.966,50.719-50.719v-511.36C688.034,227.882,688.034,226.906,688.034,226.02z M627.65,211.655H476.379V61.271
		L627.65,211.655z M652.567,741.192c0,8.601-6.739,15.34-15.34,15.34h-482.63c-8.601,0-15.34-6.739-15.34-15.34V51.695
		c0-8.601,6.739-15.34,15.34-15.34h286.315v192.502c0,9.576,7.626,17.202,17.202,17.202h193.478v495.133L652.567,741.192
		L652.567,741.192z M571.167,556.404c0,9.576-7.626,17.202-17.202,17.202H235.02c-9.576,0-17.202-7.626-17.202-17.202
		c0-9.576,7.626-17.202,17.202-17.202h318.857C563.542,538.138,571.167,545.852,571.167,556.404z M571.167,661.744
		c0,9.576-7.626,17.202-17.202,17.202H235.02c-9.576,0-17.202-7.626-17.202-17.202s7.626-17.202,17.202-17.202h318.857
		C563.542,644.453,571.167,652.167,571.167,661.744z M571.167,451.064c0,9.576-7.626,17.202-17.202,17.202H235.02
		c-9.576,0-17.202-7.626-17.202-17.202c0-9.576,7.626-17.202,17.202-17.202h318.857
		C563.542,433.773,571.167,441.488,571.167,451.064z M235.02,328.433h318.857c9.576,0,17.202,7.626,17.202,17.202
		s-7.626,17.202-17.202,17.202H235.02c-9.576,0-17.202-7.626-17.202-17.202C216.842,337.034,225.443,328.433,235.02,328.433z
		 M216.842,241.271c0-9.576,7.626-17.202,17.202-17.202h110.128c9.576,0,17.202,7.626,17.202,17.202
		c0,9.576-7.626,17.202-17.202,17.202H235.02C225.443,259.537,216.842,251.823,216.842,241.271z M216.842,136.906
		c0-9.576,7.626-17.202,17.202-17.202h110.128c9.576,0,17.202,7.626,17.202,17.202s-7.626,17.202-17.202,17.202H235.02
		C225.443,154.197,216.842,146.483,216.842,136.906z"/>
</g>
<g>
</g>
<g>
</g>
<g>
</g>
<g>
</g>
<g>
</g>
<g>
</g>
<g>
</g>
<g>
</g>
<g>
</g>
<g>
</g>
<g>
</g>
<g>
</g>
<g>
</g>
<g>
</g>
<g>
</g>
</svg>
