<svg id="filled_outline" height="512" viewBox="0 0 512 512" width="512" xmlns="http://www.w3.org/2000/svg" data-name="filled outline"><path d="m39.667 246.059h384.666v67.882h-384.666z" fill="#41a4e8" transform="matrix(.707 -.707 .707 .707 -130.039 246.059)"/><path d="m72 392-40 72 16 16 72-40z" fill="#e6b273"/><path d="m424 56 40-32 24 24-32 40z" fill="#41a4e8"/><path d="m336 112 72-72 64 64-8 80-128 136-16-16 88-120z" fill="#e6b273"/><path d="m469.65674 18.34277a8.0033 8.0033 0 0 0 -10.6543-.58984l-34.40863 27.52686-10.93707-10.937a8.00182 8.00182 0 0 0 -11.31348 0l-72 72a8.00034 8.00034 0 0 0 0 11.31446l2.34274 2.34275-266.34274 266.34277a7.99041 7.99041 0 0 0 -1.33227 1.77491l-.00415-.00245-.087.15674-.00592.01074-39.907 71.83252a7.99957 7.99957 0 0 0 1.33642 9.542l2.34266 2.34277-10.34274 10.34277a8.00018 8.00018 0 0 0 11.31348 11.31446l10.34326-10.34323 2.34326 2.34327a8.00028 8.00028 0 0 0 9.542 1.33593l72-40-.00244-.00439a7.98956 7.98956 0 0 0 1.77393-1.33154l266.3435-266.34351 5.49 5.49-83.9414 114.46582a8.00014 8.00014 0 0 0 .79443 10.3877l16 16a8.00138 8.00138 0 0 0 5.65672 2.34272c.04 0 .08057 0 .12109-.001a7.99921 7.99921 0 0 0 5.70459-2.51562l128-136a8.00744 8.00744 0 0 0 2.13477-4.6875l8-80a8.00086 8.00086 0 0 0 -2.30371-6.45313l-10.93674-10.93675 27.5271-34.40894a8.00018 8.00018 0 0 0 -.59033-10.6543zm-420.26709 451.7334-3.72833-3.72851-.00458-.00489-.00507-.00439-3.72784-3.728 31.91852-57.4541 33.00116 33.001zm70.61035-41.38965-36.686-36.68652 260.6861-260.686 36.68616 36.6858zm336.31055-248.18847-120.48438 128.01465-5.3164-5.31641 83.9414-114.46582a8.00014 8.00014 0 0 0 -.79443-10.3877l-66.34326-66.34277 60.68652-60.68652 55.6626 55.66308zm-.9737-104.4751-19.35962-19.35962 27.429-21.9436 13.87354 13.874z"/></svg>