<?xml version='1.0' encoding='utf-8'?>
<!DOCTYPE svg PUBLIC '-//W3C//DTD SVG 1.1//EN' 'http://www.w3.org/Graphics/SVG/1.1/DTD/svg11.dtd'>
<svg version="1.1" xmlns="http://www.w3.org/2000/svg" viewBox="0 0 512 512" xmlns:xlink="http://www.w3.org/1999/xlink" enable-background="new 0 0 512 512">
  <g>
    <g>
      <g>
        <path d="m124.1,133.6h152.4c11.3,0 20.4-9.1 20.4-20.4 0-11.3-9.1-20.4-20.4-20.4h-152.4c-11.3,0-20.4,9.1-20.4,20.4 1.42109e-14,11.3 9.1,20.4 20.4,20.4z"/>
        <path d="m296.9,199.4c0-11.3-9.1-20.4-20.4-20.4h-152.4c-11.3,0-20.4,9.1-20.4,20.4 0,11.3 9.1,20.4 20.4,20.4h152.4c11.3,0 20.4-9.1 20.4-20.4z"/>
        <path d="m482.3,200.3c-28.4-2.2-60.8,12.1-92.8,33.8v-202.9c0-11.3-9.1-20.4-20.4-20.4h-337.6c-11.3,0-20.4,9.1-20.4,20.4v449.2c0,11.3 9.1,20.4 20.4,20.4h337.5c11.3,0 20.4-9.1 20.4-20.4v-194.3c33.8-27.8 66.2-46.8 89.7-45 11.3,0.9 21.1-7.6 21.9-18.8 0.9-11.3-7.5-21.1-18.7-22zm-133.7,259.7h-296.6v-408.3h296.7v214c-44.9,38.4-84.7,84.3-105.5,109.6l-29.2-26.5c-8.4-7.6-21.3-7-28.8,1.4-7.6,8.3-7,21.3 1.4,28.8l45.3,41.1c4.8,5 19.4,10 29.9-2.6 23.2-28 54.3-63.1 86.9-94.7v137.2z"/>
      </g>
    </g>
  </g>
</svg>
